{"title":"Dziga Vertov - Shestaya chast mira (1926)","uid":5739139,"size":1111853540,"categoryP":"video","categoryS":"movies","magnet":"?xt=urn:btih:d71236599d196f2caff57e75d12062f98c2d82d3&amp;dn=+Dziga+Vertov+-+Shestaya+chast+mira+%281926%29&amp;tr=udp%3A%2F%2Ftracker.openbittorrent.com%3A80&amp;tr=udp%3A%2F%2Fopen.demonii.com%3A1337&amp;tr=udp%3A%2F%2Ftracker.coppersurfer.tk%3A6969&amp;tr=udp%3A%2F%2Fexodus.desync.com%3A6969","seeders":1,"leechers":0,"uploader":"mfccorrea","files":4,"time":1280936019,"description":"A Sixth Part of the World is Vertov's &quot;state of the USSR report&quot;, an extraordinary compilation of images from throughout the Soviet Union that chronicles the spread of the Bolshevik Revolution as well as the technological changes affecting the lives of Soviet citizens. Constructed like a piece of music (a contrapuntal structure, recurring\nthemes, crescendos and diminuendos, prestos and lentos, etc.), A Sixth Part of the World is a film of undiminished power and formal artistry.\n\n   General\n      Complete name : Shestaya chast mira.avi\n      Format : AVI\n      Format/Info : Audio Video Interleave\n      File size : 1.03 GiB\n      Duration : 1h 14mn\n      Overall bit rate : 1 996 Kbps\n      Writing application : FairUse Wizard \n   Video #0\n      ID : 0\n      Format : MPEG-4 Visual\n      Format profile : AdvancedSimple@L5\n      Format settings, BVOP : Yes\n      Format settings, QPel : No\n      Format settings, GMC : No warppoints\n      Format settings, Matrix : Default (MPEG)\n      Muxing mode : Packed bitstream\n      Codec ID : XVID\n      Codec ID/Hint : XviD\n      Duration : 1h 14mn\n      Bit rate : 1 763 Kbps\n      Width : 640 pixels\n      Height : 480 pixels\n      Display aspect ratio : 4:3\n      Frame rate : 25.000 fps\n      Resolution : 24 bits\n      Colorimetry : 4:2:0\n      Scan type : Progressive\n      Bits/(Pixel*Frame) : 0.229\n      Stream size : 934 MiB (88%)\n      Writing library : XviD 1.2.0.dev47 (UTC 2006-11-01)\n   Audio #1\n      ID : 1\n      Format : AC-3\n      Format/Info : Audio Coding 3\n      Codec ID : 2000\n      Duration : 1h 14mn\n      Bit rate mode : Constant\n      Bit rate : 224 Kbps\n      Channel(s) : 2 channels\n      Channel positions : L R\n      Sampling rate : 48.0 KHz\n      Stream size : 119 MiB (11%)\n      Alignment : Split accross interleaves\n      Interleave, duration : 40 ms (1.00 video frame)\n      Interleave, preload duration : 500 ms\n &lt;a href=&quot;\nhttp://www.imdb.com/title/tt0017376/&quot; rel=&quot;nofollow&quot; target=&quot;_NEW&quot;&gt;\nhttp://www.imdb.com/title/tt0017376/&lt;/a&gt;\n\nRussian Intertitles; German and English subpack (idx/sub), English srt\n\nMy rip of the Filmmuseum DVD\n\nDziga Vertov - Shestaya chast mira (1926)","torrent":{"xt":"urn:btih:d71236599d196f2caff57e75d12062f98c2d82d3","amp;dn":"+Dziga+Vertov+-+Shestaya+chast+mira+%281926%29","amp;tr":["udp%3A%2F%2Ftracker.openbittorrent.com%3A80","udp%3A%2F%2Fopen.demonii.com%3A1337","udp%3A%2F%2Ftracker.coppersurfer.tk%3A6969","udp%3A%2F%2Fexodus.desync.com%3A6969"],"infoHash":"d71236599d196f2caff57e75d12062f98c2d82d3","infoHashBuffer":{"type":"Buffer","data":[215,18,54,89,157,25,111,44,175,245,126,117,209,32,98,249,140,45,130,211]},"announce":[],"urlList":[]}}